<mxfile host="app.diagrams.net" modified="2021-07-19T02:54:04.014Z" agent="5.0 (Windows NT 10.0; WOW64) AppleWebKit/537.36 (KHTML, like Gecko) Chrome/91.0.4472.114 Safari/537.36" etag="nBHJpy-xLHt-u75UT6fl" version="14.8.4" type="github">
  <diagram id="tzQ3Y9CpRJ8syj13eXGw" name="Page-1">
    <mxGraphModel dx="2062" dy="1122" grid="1" gridSize="10" guides="1" tooltips="1" connect="1" arrows="1" fold="1" page="1" pageScale="1" pageWidth="827" pageHeight="1169" math="0" shadow="0">
      <root>
        <mxCell id="0" />
        <mxCell id="1" parent="0" />
        <mxCell id="xvZRecqZtTW9wfuWbH0g-1" value="" style="ellipse;whiteSpace=wrap;html=1;aspect=fixed;fillColor=#000000;" vertex="1" parent="1">
          <mxGeometry x="100" y="500" width="10" height="10" as="geometry" />
        </mxCell>
        <mxCell id="xvZRecqZtTW9wfuWbH0g-2" value="" style="endArrow=classic;html=1;strokeWidth=2;" edge="1" parent="1">
          <mxGeometry width="50" height="50" relative="1" as="geometry">
            <mxPoint x="30" y="640" as="sourcePoint" />
            <mxPoint x="350" y="640" as="targetPoint" />
          </mxGeometry>
        </mxCell>
        <mxCell id="xvZRecqZtTW9wfuWbH0g-3" value="" style="endArrow=classic;html=1;strokeWidth=2;" edge="1" parent="1">
          <mxGeometry width="50" height="50" relative="1" as="geometry">
            <mxPoint x="70" y="670" as="sourcePoint" />
            <mxPoint x="70" y="360" as="targetPoint" />
          </mxGeometry>
        </mxCell>
        <mxCell id="xvZRecqZtTW9wfuWbH0g-4" value="" style="ellipse;whiteSpace=wrap;html=1;aspect=fixed;fillColor=#000000;" vertex="1" parent="1">
          <mxGeometry x="100" y="530" width="10" height="10" as="geometry" />
        </mxCell>
        <mxCell id="xvZRecqZtTW9wfuWbH0g-5" value="" style="ellipse;whiteSpace=wrap;html=1;aspect=fixed;fillColor=#000000;" vertex="1" parent="1">
          <mxGeometry x="172" y="466" width="10" height="10" as="geometry" />
        </mxCell>
        <mxCell id="xvZRecqZtTW9wfuWbH0g-6" value="" style="ellipse;whiteSpace=wrap;html=1;aspect=fixed;fillColor=#000000;" vertex="1" parent="1">
          <mxGeometry x="124" y="540" width="10" height="10" as="geometry" />
        </mxCell>
        <mxCell id="xvZRecqZtTW9wfuWbH0g-7" value="" style="ellipse;whiteSpace=wrap;html=1;aspect=fixed;fillColor=#000000;" vertex="1" parent="1">
          <mxGeometry x="140" y="540" width="10" height="10" as="geometry" />
        </mxCell>
        <mxCell id="xvZRecqZtTW9wfuWbH0g-8" value="" style="ellipse;whiteSpace=wrap;html=1;aspect=fixed;fillColor=#000000;" vertex="1" parent="1">
          <mxGeometry x="110" y="560" width="10" height="10" as="geometry" />
        </mxCell>
        <mxCell id="xvZRecqZtTW9wfuWbH0g-10" value="" style="ellipse;whiteSpace=wrap;html=1;aspect=fixed;fillColor=#000000;" vertex="1" parent="1">
          <mxGeometry x="212" y="566" width="10" height="10" as="geometry" />
        </mxCell>
        <mxCell id="xvZRecqZtTW9wfuWbH0g-11" value="" style="ellipse;whiteSpace=wrap;html=1;aspect=fixed;fillColor=#000000;" vertex="1" parent="1">
          <mxGeometry x="212" y="596" width="10" height="10" as="geometry" />
        </mxCell>
        <mxCell id="xvZRecqZtTW9wfuWbH0g-12" value="" style="ellipse;whiteSpace=wrap;html=1;aspect=fixed;fillColor=#000000;" vertex="1" parent="1">
          <mxGeometry x="232" y="586" width="10" height="10" as="geometry" />
        </mxCell>
        <mxCell id="xvZRecqZtTW9wfuWbH0g-13" value="" style="ellipse;whiteSpace=wrap;html=1;aspect=fixed;fillColor=#000000;" vertex="1" parent="1">
          <mxGeometry x="236" y="606" width="10" height="10" as="geometry" />
        </mxCell>
        <mxCell id="xvZRecqZtTW9wfuWbH0g-14" value="" style="ellipse;whiteSpace=wrap;html=1;aspect=fixed;fillColor=#000000;" vertex="1" parent="1">
          <mxGeometry x="252" y="606" width="10" height="10" as="geometry" />
        </mxCell>
        <mxCell id="xvZRecqZtTW9wfuWbH0g-15" value="" style="ellipse;whiteSpace=wrap;html=1;aspect=fixed;fillColor=#000000;" vertex="1" parent="1">
          <mxGeometry x="222" y="626" width="10" height="10" as="geometry" />
        </mxCell>
        <mxCell id="xvZRecqZtTW9wfuWbH0g-16" value="" style="ellipse;whiteSpace=wrap;html=1;aspect=fixed;fillColor=#000000;" vertex="1" parent="1">
          <mxGeometry x="172" y="418" width="10" height="10" as="geometry" />
        </mxCell>
        <mxCell id="xvZRecqZtTW9wfuWbH0g-17" value="" style="ellipse;whiteSpace=wrap;html=1;aspect=fixed;fillColor=#000000;" vertex="1" parent="1">
          <mxGeometry x="172" y="448" width="10" height="10" as="geometry" />
        </mxCell>
        <mxCell id="xvZRecqZtTW9wfuWbH0g-18" value="" style="ellipse;whiteSpace=wrap;html=1;aspect=fixed;fillColor=#000000;" vertex="1" parent="1">
          <mxGeometry x="192" y="438" width="10" height="10" as="geometry" />
        </mxCell>
        <mxCell id="xvZRecqZtTW9wfuWbH0g-19" value="" style="ellipse;whiteSpace=wrap;html=1;aspect=fixed;fillColor=#000000;" vertex="1" parent="1">
          <mxGeometry x="196" y="458" width="10" height="10" as="geometry" />
        </mxCell>
        <mxCell id="xvZRecqZtTW9wfuWbH0g-20" value="" style="ellipse;whiteSpace=wrap;html=1;aspect=fixed;fillColor=#000000;" vertex="1" parent="1">
          <mxGeometry x="212" y="458" width="10" height="10" as="geometry" />
        </mxCell>
        <mxCell id="xvZRecqZtTW9wfuWbH0g-21" value="" style="ellipse;whiteSpace=wrap;html=1;aspect=fixed;fillColor=#000000;" vertex="1" parent="1">
          <mxGeometry x="130" y="532" width="10" height="10" as="geometry" />
        </mxCell>
        <mxCell id="xvZRecqZtTW9wfuWbH0g-22" value="" style="ellipse;whiteSpace=wrap;html=1;aspect=fixed;fillColor=#3333FF;" vertex="1" parent="1">
          <mxGeometry x="490" y="490" width="10" height="10" as="geometry" />
        </mxCell>
        <mxCell id="xvZRecqZtTW9wfuWbH0g-23" value="" style="endArrow=classic;html=1;strokeWidth=2;" edge="1" parent="1">
          <mxGeometry width="50" height="50" relative="1" as="geometry">
            <mxPoint x="420" y="630" as="sourcePoint" />
            <mxPoint x="740" y="630" as="targetPoint" />
          </mxGeometry>
        </mxCell>
        <mxCell id="xvZRecqZtTW9wfuWbH0g-24" value="" style="endArrow=classic;html=1;strokeWidth=2;" edge="1" parent="1">
          <mxGeometry width="50" height="50" relative="1" as="geometry">
            <mxPoint x="460" y="660" as="sourcePoint" />
            <mxPoint x="460" y="350" as="targetPoint" />
          </mxGeometry>
        </mxCell>
        <mxCell id="xvZRecqZtTW9wfuWbH0g-25" value="" style="ellipse;whiteSpace=wrap;html=1;aspect=fixed;fillColor=#3333FF;" vertex="1" parent="1">
          <mxGeometry x="490" y="520" width="10" height="10" as="geometry" />
        </mxCell>
        <mxCell id="xvZRecqZtTW9wfuWbH0g-26" value="" style="ellipse;whiteSpace=wrap;html=1;aspect=fixed;fillColor=#FF6666;" vertex="1" parent="1">
          <mxGeometry x="562" y="456" width="10" height="10" as="geometry" />
        </mxCell>
        <mxCell id="xvZRecqZtTW9wfuWbH0g-27" value="" style="ellipse;whiteSpace=wrap;html=1;aspect=fixed;fillColor=#3333FF;" vertex="1" parent="1">
          <mxGeometry x="514" y="530" width="10" height="10" as="geometry" />
        </mxCell>
        <mxCell id="xvZRecqZtTW9wfuWbH0g-28" value="" style="ellipse;whiteSpace=wrap;html=1;aspect=fixed;fillColor=#3333FF;" vertex="1" parent="1">
          <mxGeometry x="530" y="530" width="10" height="10" as="geometry" />
        </mxCell>
        <mxCell id="xvZRecqZtTW9wfuWbH0g-29" value="" style="ellipse;whiteSpace=wrap;html=1;aspect=fixed;fillColor=#3333FF;" vertex="1" parent="1">
          <mxGeometry x="500" y="550" width="10" height="10" as="geometry" />
        </mxCell>
        <mxCell id="xvZRecqZtTW9wfuWbH0g-30" value="" style="ellipse;whiteSpace=wrap;html=1;aspect=fixed;fillColor=#33FF33;" vertex="1" parent="1">
          <mxGeometry x="602" y="556" width="10" height="10" as="geometry" />
        </mxCell>
        <mxCell id="xvZRecqZtTW9wfuWbH0g-31" value="" style="ellipse;whiteSpace=wrap;html=1;aspect=fixed;fillColor=#33FF33;" vertex="1" parent="1">
          <mxGeometry x="602" y="586" width="10" height="10" as="geometry" />
        </mxCell>
        <mxCell id="xvZRecqZtTW9wfuWbH0g-32" value="" style="ellipse;whiteSpace=wrap;html=1;aspect=fixed;fillColor=#33FF33;" vertex="1" parent="1">
          <mxGeometry x="622" y="576" width="10" height="10" as="geometry" />
        </mxCell>
        <mxCell id="xvZRecqZtTW9wfuWbH0g-34" value="" style="ellipse;whiteSpace=wrap;html=1;aspect=fixed;fillColor=#33FF33;" vertex="1" parent="1">
          <mxGeometry x="642" y="596" width="10" height="10" as="geometry" />
        </mxCell>
        <mxCell id="xvZRecqZtTW9wfuWbH0g-35" value="" style="ellipse;whiteSpace=wrap;html=1;aspect=fixed;fillColor=#33FF33;" vertex="1" parent="1">
          <mxGeometry x="612" y="616" width="10" height="10" as="geometry" />
        </mxCell>
        <mxCell id="xvZRecqZtTW9wfuWbH0g-36" value="" style="ellipse;whiteSpace=wrap;html=1;aspect=fixed;fillColor=#FF6666;" vertex="1" parent="1">
          <mxGeometry x="562" y="408" width="10" height="10" as="geometry" />
        </mxCell>
        <mxCell id="xvZRecqZtTW9wfuWbH0g-37" value="" style="ellipse;whiteSpace=wrap;html=1;aspect=fixed;fillColor=#FF6666;" vertex="1" parent="1">
          <mxGeometry x="562" y="438" width="10" height="10" as="geometry" />
        </mxCell>
        <mxCell id="xvZRecqZtTW9wfuWbH0g-38" value="" style="ellipse;whiteSpace=wrap;html=1;aspect=fixed;fillColor=#FF6666;" vertex="1" parent="1">
          <mxGeometry x="582" y="428" width="10" height="10" as="geometry" />
        </mxCell>
        <mxCell id="xvZRecqZtTW9wfuWbH0g-40" value="" style="ellipse;whiteSpace=wrap;html=1;aspect=fixed;fillColor=#FF6666;" vertex="1" parent="1">
          <mxGeometry x="602" y="448" width="10" height="10" as="geometry" />
        </mxCell>
        <mxCell id="xvZRecqZtTW9wfuWbH0g-49" value="" style="group;fillColor=none;" vertex="1" connectable="0" parent="1">
          <mxGeometry x="506" y="512" width="18" height="20" as="geometry" />
        </mxCell>
        <mxCell id="xvZRecqZtTW9wfuWbH0g-44" value="" style="endArrow=none;html=1;strokeWidth=4;fillColor=none;strokeColor=#3333FF;" edge="1" parent="xvZRecqZtTW9wfuWbH0g-49">
          <mxGeometry width="50" height="50" relative="1" as="geometry">
            <mxPoint as="sourcePoint" />
            <mxPoint x="18.000000000000004" y="20" as="targetPoint" />
          </mxGeometry>
        </mxCell>
        <mxCell id="xvZRecqZtTW9wfuWbH0g-43" value="" style="endArrow=none;html=1;strokeWidth=4;fillColor=none;strokeColor=#3333FF;" edge="1" parent="xvZRecqZtTW9wfuWbH0g-49">
          <mxGeometry width="50" height="50" relative="1" as="geometry">
            <mxPoint x="0.9000000000000002" y="20" as="sourcePoint" />
            <mxPoint x="17.100000000000005" as="targetPoint" />
          </mxGeometry>
        </mxCell>
        <mxCell id="xvZRecqZtTW9wfuWbH0g-58" value="" style="group;fillColor=none;" vertex="1" connectable="0" parent="1">
          <mxGeometry x="576" y="433" width="22" height="20" as="geometry" />
        </mxCell>
        <mxCell id="xvZRecqZtTW9wfuWbH0g-59" value="" style="endArrow=none;html=1;strokeWidth=4;fillColor=none;strokeColor=#FF0000;" edge="1" parent="xvZRecqZtTW9wfuWbH0g-58">
          <mxGeometry width="50" height="50" relative="1" as="geometry">
            <mxPoint as="sourcePoint" />
            <mxPoint x="22.000000000000004" y="20" as="targetPoint" />
          </mxGeometry>
        </mxCell>
        <mxCell id="xvZRecqZtTW9wfuWbH0g-60" value="" style="endArrow=none;html=1;strokeWidth=4;fillColor=none;strokeColor=#FF0000;" edge="1" parent="xvZRecqZtTW9wfuWbH0g-58">
          <mxGeometry width="50" height="50" relative="1" as="geometry">
            <mxPoint x="1.1000000000000003" y="20" as="sourcePoint" />
            <mxPoint x="20.900000000000006" as="targetPoint" />
          </mxGeometry>
        </mxCell>
        <mxCell id="xvZRecqZtTW9wfuWbH0g-61" value="" style="group;fillColor=none;" vertex="1" connectable="0" parent="1">
          <mxGeometry x="617" y="585" width="20" height="20" as="geometry" />
        </mxCell>
        <mxCell id="xvZRecqZtTW9wfuWbH0g-62" value="" style="endArrow=none;html=1;strokeWidth=4;fillColor=none;strokeColor=#33FF33;" edge="1" parent="xvZRecqZtTW9wfuWbH0g-61">
          <mxGeometry width="50" height="50" relative="1" as="geometry">
            <mxPoint as="sourcePoint" />
            <mxPoint x="20.000000000000004" y="20" as="targetPoint" />
          </mxGeometry>
        </mxCell>
        <mxCell id="xvZRecqZtTW9wfuWbH0g-63" value="" style="endArrow=none;html=1;strokeWidth=4;fillColor=none;strokeColor=#33FF33;" edge="1" parent="xvZRecqZtTW9wfuWbH0g-61">
          <mxGeometry width="50" height="50" relative="1" as="geometry">
            <mxPoint x="1.0000000000000004" y="20" as="sourcePoint" />
            <mxPoint x="19.000000000000007" as="targetPoint" />
          </mxGeometry>
        </mxCell>
        <mxCell id="xvZRecqZtTW9wfuWbH0g-64" value="" style="ellipse;whiteSpace=wrap;html=1;aspect=fixed;fillColor=#3333FF;" vertex="1" parent="1">
          <mxGeometry x="107" y="890" width="10" height="10" as="geometry" />
        </mxCell>
        <mxCell id="xvZRecqZtTW9wfuWbH0g-65" value="" style="endArrow=classic;html=1;strokeWidth=2;" edge="1" parent="1">
          <mxGeometry width="50" height="50" relative="1" as="geometry">
            <mxPoint x="37" y="1030" as="sourcePoint" />
            <mxPoint x="357" y="1030" as="targetPoint" />
          </mxGeometry>
        </mxCell>
        <mxCell id="xvZRecqZtTW9wfuWbH0g-66" value="" style="endArrow=classic;html=1;strokeWidth=2;" edge="1" parent="1">
          <mxGeometry width="50" height="50" relative="1" as="geometry">
            <mxPoint x="77" y="1060" as="sourcePoint" />
            <mxPoint x="77" y="750" as="targetPoint" />
          </mxGeometry>
        </mxCell>
        <mxCell id="xvZRecqZtTW9wfuWbH0g-67" value="" style="ellipse;whiteSpace=wrap;html=1;aspect=fixed;fillColor=#3333FF;" vertex="1" parent="1">
          <mxGeometry x="107" y="920" width="10" height="10" as="geometry" />
        </mxCell>
        <mxCell id="xvZRecqZtTW9wfuWbH0g-68" value="" style="ellipse;whiteSpace=wrap;html=1;aspect=fixed;fillColor=#3333FF;" vertex="1" parent="1">
          <mxGeometry x="179" y="856" width="10" height="10" as="geometry" />
        </mxCell>
        <mxCell id="xvZRecqZtTW9wfuWbH0g-69" value="" style="ellipse;whiteSpace=wrap;html=1;aspect=fixed;fillColor=#3333FF;" vertex="1" parent="1">
          <mxGeometry x="131" y="930" width="10" height="10" as="geometry" />
        </mxCell>
        <mxCell id="xvZRecqZtTW9wfuWbH0g-70" value="" style="ellipse;whiteSpace=wrap;html=1;aspect=fixed;fillColor=#3333FF;" vertex="1" parent="1">
          <mxGeometry x="147" y="930" width="10" height="10" as="geometry" />
        </mxCell>
        <mxCell id="xvZRecqZtTW9wfuWbH0g-71" value="" style="ellipse;whiteSpace=wrap;html=1;aspect=fixed;fillColor=#3333FF;" vertex="1" parent="1">
          <mxGeometry x="117" y="950" width="10" height="10" as="geometry" />
        </mxCell>
        <mxCell id="xvZRecqZtTW9wfuWbH0g-72" value="" style="ellipse;whiteSpace=wrap;html=1;aspect=fixed;fillColor=#FF6666;" vertex="1" parent="1">
          <mxGeometry x="219" y="956" width="10" height="10" as="geometry" />
        </mxCell>
        <mxCell id="xvZRecqZtTW9wfuWbH0g-73" value="" style="ellipse;whiteSpace=wrap;html=1;aspect=fixed;fillColor=#33FF33;" vertex="1" parent="1">
          <mxGeometry x="219" y="986" width="10" height="10" as="geometry" />
        </mxCell>
        <mxCell id="xvZRecqZtTW9wfuWbH0g-74" value="" style="ellipse;whiteSpace=wrap;html=1;aspect=fixed;fillColor=#FF6666;" vertex="1" parent="1">
          <mxGeometry x="239" y="976" width="10" height="10" as="geometry" />
        </mxCell>
        <mxCell id="xvZRecqZtTW9wfuWbH0g-75" value="" style="ellipse;whiteSpace=wrap;html=1;aspect=fixed;fillColor=#FF6666;" vertex="1" parent="1">
          <mxGeometry x="259" y="996" width="10" height="10" as="geometry" />
        </mxCell>
        <mxCell id="xvZRecqZtTW9wfuWbH0g-76" value="" style="ellipse;whiteSpace=wrap;html=1;aspect=fixed;fillColor=#33FF33;" vertex="1" parent="1">
          <mxGeometry x="229" y="1016" width="10" height="10" as="geometry" />
        </mxCell>
        <mxCell id="xvZRecqZtTW9wfuWbH0g-77" value="" style="ellipse;whiteSpace=wrap;html=1;aspect=fixed;fillColor=#3333FF;" vertex="1" parent="1">
          <mxGeometry x="179" y="808" width="10" height="10" as="geometry" />
        </mxCell>
        <mxCell id="xvZRecqZtTW9wfuWbH0g-78" value="" style="ellipse;whiteSpace=wrap;html=1;aspect=fixed;fillColor=#3333FF;" vertex="1" parent="1">
          <mxGeometry x="179" y="838" width="10" height="10" as="geometry" />
        </mxCell>
        <mxCell id="xvZRecqZtTW9wfuWbH0g-79" value="" style="ellipse;whiteSpace=wrap;html=1;aspect=fixed;fillColor=#3333FF;" vertex="1" parent="1">
          <mxGeometry x="199" y="828" width="10" height="10" as="geometry" />
        </mxCell>
        <mxCell id="xvZRecqZtTW9wfuWbH0g-80" value="" style="ellipse;whiteSpace=wrap;html=1;aspect=fixed;fillColor=#3333FF;" vertex="1" parent="1">
          <mxGeometry x="219" y="848" width="10" height="10" as="geometry" />
        </mxCell>
        <mxCell id="xvZRecqZtTW9wfuWbH0g-81" value="" style="group;fillColor=none;" vertex="1" connectable="0" parent="1">
          <mxGeometry x="150" y="880" width="18" height="20" as="geometry" />
        </mxCell>
        <mxCell id="xvZRecqZtTW9wfuWbH0g-82" value="" style="endArrow=none;html=1;strokeWidth=4;fillColor=none;strokeColor=#3333FF;" edge="1" parent="xvZRecqZtTW9wfuWbH0g-81">
          <mxGeometry width="50" height="50" relative="1" as="geometry">
            <mxPoint as="sourcePoint" />
            <mxPoint x="18.000000000000004" y="20" as="targetPoint" />
          </mxGeometry>
        </mxCell>
        <mxCell id="xvZRecqZtTW9wfuWbH0g-83" value="" style="endArrow=none;html=1;strokeWidth=4;fillColor=none;strokeColor=#3333FF;" edge="1" parent="xvZRecqZtTW9wfuWbH0g-81">
          <mxGeometry width="50" height="50" relative="1" as="geometry">
            <mxPoint x="0.9000000000000002" y="20" as="sourcePoint" />
            <mxPoint x="17.100000000000005" as="targetPoint" />
          </mxGeometry>
        </mxCell>
        <mxCell id="xvZRecqZtTW9wfuWbH0g-84" value="" style="group;fillColor=none;" vertex="1" connectable="0" parent="1">
          <mxGeometry x="233" y="971" width="22" height="20" as="geometry" />
        </mxCell>
        <mxCell id="xvZRecqZtTW9wfuWbH0g-85" value="" style="endArrow=none;html=1;strokeWidth=4;fillColor=none;strokeColor=#FF0000;" edge="1" parent="xvZRecqZtTW9wfuWbH0g-84">
          <mxGeometry width="50" height="50" relative="1" as="geometry">
            <mxPoint as="sourcePoint" />
            <mxPoint x="22.000000000000004" y="20" as="targetPoint" />
          </mxGeometry>
        </mxCell>
        <mxCell id="xvZRecqZtTW9wfuWbH0g-86" value="" style="endArrow=none;html=1;strokeWidth=4;fillColor=none;strokeColor=#FF0000;" edge="1" parent="xvZRecqZtTW9wfuWbH0g-84">
          <mxGeometry width="50" height="50" relative="1" as="geometry">
            <mxPoint x="1.1000000000000003" y="20" as="sourcePoint" />
            <mxPoint x="20.900000000000006" as="targetPoint" />
          </mxGeometry>
        </mxCell>
        <mxCell id="xvZRecqZtTW9wfuWbH0g-87" value="" style="group;fillColor=none;" vertex="1" connectable="0" parent="1">
          <mxGeometry x="219" y="996" width="20" height="20" as="geometry" />
        </mxCell>
        <mxCell id="xvZRecqZtTW9wfuWbH0g-88" value="" style="endArrow=none;html=1;strokeWidth=4;fillColor=none;strokeColor=#33FF33;" edge="1" parent="xvZRecqZtTW9wfuWbH0g-87">
          <mxGeometry width="50" height="50" relative="1" as="geometry">
            <mxPoint as="sourcePoint" />
            <mxPoint x="20.000000000000004" y="20" as="targetPoint" />
          </mxGeometry>
        </mxCell>
        <mxCell id="xvZRecqZtTW9wfuWbH0g-89" value="" style="endArrow=none;html=1;strokeWidth=4;fillColor=none;strokeColor=#33FF33;" edge="1" parent="xvZRecqZtTW9wfuWbH0g-87">
          <mxGeometry width="50" height="50" relative="1" as="geometry">
            <mxPoint x="1.0000000000000004" y="20" as="sourcePoint" />
            <mxPoint x="19.000000000000007" as="targetPoint" />
          </mxGeometry>
        </mxCell>
        <mxCell id="xvZRecqZtTW9wfuWbH0g-90" value="" style="ellipse;whiteSpace=wrap;html=1;aspect=fixed;fillColor=#33FF33;" vertex="1" parent="1">
          <mxGeometry x="497" y="880" width="10" height="10" as="geometry" />
        </mxCell>
        <mxCell id="xvZRecqZtTW9wfuWbH0g-91" value="" style="endArrow=classic;html=1;strokeWidth=2;" edge="1" parent="1">
          <mxGeometry width="50" height="50" relative="1" as="geometry">
            <mxPoint x="427" y="1020" as="sourcePoint" />
            <mxPoint x="747" y="1020" as="targetPoint" />
          </mxGeometry>
        </mxCell>
        <mxCell id="xvZRecqZtTW9wfuWbH0g-92" value="" style="endArrow=classic;html=1;strokeWidth=2;" edge="1" parent="1">
          <mxGeometry width="50" height="50" relative="1" as="geometry">
            <mxPoint x="467" y="1050" as="sourcePoint" />
            <mxPoint x="467" y="740" as="targetPoint" />
          </mxGeometry>
        </mxCell>
        <mxCell id="xvZRecqZtTW9wfuWbH0g-93" value="" style="ellipse;whiteSpace=wrap;html=1;aspect=fixed;fillColor=#33FF33;" vertex="1" parent="1">
          <mxGeometry x="497" y="910" width="10" height="10" as="geometry" />
        </mxCell>
        <mxCell id="xvZRecqZtTW9wfuWbH0g-94" value="" style="ellipse;whiteSpace=wrap;html=1;aspect=fixed;fillColor=#3333FF;" vertex="1" parent="1">
          <mxGeometry x="569" y="846" width="10" height="10" as="geometry" />
        </mxCell>
        <mxCell id="xvZRecqZtTW9wfuWbH0g-95" value="" style="ellipse;whiteSpace=wrap;html=1;aspect=fixed;fillColor=#33FF33;" vertex="1" parent="1">
          <mxGeometry x="521" y="920" width="10" height="10" as="geometry" />
        </mxCell>
        <mxCell id="xvZRecqZtTW9wfuWbH0g-96" value="" style="ellipse;whiteSpace=wrap;html=1;aspect=fixed;fillColor=#33FF33;" vertex="1" parent="1">
          <mxGeometry x="537" y="920" width="10" height="10" as="geometry" />
        </mxCell>
        <mxCell id="xvZRecqZtTW9wfuWbH0g-97" value="" style="ellipse;whiteSpace=wrap;html=1;aspect=fixed;fillColor=#33FF33;" vertex="1" parent="1">
          <mxGeometry x="507" y="940" width="10" height="10" as="geometry" />
        </mxCell>
        <mxCell id="xvZRecqZtTW9wfuWbH0g-98" value="" style="ellipse;whiteSpace=wrap;html=1;aspect=fixed;fillColor=#33FF33;" vertex="1" parent="1">
          <mxGeometry x="609" y="946" width="10" height="10" as="geometry" />
        </mxCell>
        <mxCell id="xvZRecqZtTW9wfuWbH0g-99" value="" style="ellipse;whiteSpace=wrap;html=1;aspect=fixed;fillColor=#33FF33;" vertex="1" parent="1">
          <mxGeometry x="609" y="976" width="10" height="10" as="geometry" />
        </mxCell>
        <mxCell id="xvZRecqZtTW9wfuWbH0g-100" value="" style="ellipse;whiteSpace=wrap;html=1;aspect=fixed;fillColor=#33FF33;" vertex="1" parent="1">
          <mxGeometry x="629" y="966" width="10" height="10" as="geometry" />
        </mxCell>
        <mxCell id="xvZRecqZtTW9wfuWbH0g-101" value="" style="ellipse;whiteSpace=wrap;html=1;aspect=fixed;fillColor=#33FF33;" vertex="1" parent="1">
          <mxGeometry x="649" y="986" width="10" height="10" as="geometry" />
        </mxCell>
        <mxCell id="xvZRecqZtTW9wfuWbH0g-102" value="" style="ellipse;whiteSpace=wrap;html=1;aspect=fixed;fillColor=#33FF33;" vertex="1" parent="1">
          <mxGeometry x="619" y="1006" width="10" height="10" as="geometry" />
        </mxCell>
        <mxCell id="xvZRecqZtTW9wfuWbH0g-103" value="" style="ellipse;whiteSpace=wrap;html=1;aspect=fixed;fillColor=#3333FF;" vertex="1" parent="1">
          <mxGeometry x="569" y="798" width="10" height="10" as="geometry" />
        </mxCell>
        <mxCell id="xvZRecqZtTW9wfuWbH0g-104" value="" style="ellipse;whiteSpace=wrap;html=1;aspect=fixed;fillColor=#3333FF;" vertex="1" parent="1">
          <mxGeometry x="569" y="828" width="10" height="10" as="geometry" />
        </mxCell>
        <mxCell id="xvZRecqZtTW9wfuWbH0g-105" value="" style="ellipse;whiteSpace=wrap;html=1;aspect=fixed;fillColor=#3333FF;" vertex="1" parent="1">
          <mxGeometry x="589" y="818" width="10" height="10" as="geometry" />
        </mxCell>
        <mxCell id="xvZRecqZtTW9wfuWbH0g-106" value="" style="ellipse;whiteSpace=wrap;html=1;aspect=fixed;fillColor=#3333FF;" vertex="1" parent="1">
          <mxGeometry x="609" y="838" width="10" height="10" as="geometry" />
        </mxCell>
        <mxCell id="xvZRecqZtTW9wfuWbH0g-107" value="" style="group;fillColor=none;" vertex="1" connectable="0" parent="1">
          <mxGeometry x="581" y="826" width="18" height="20" as="geometry" />
        </mxCell>
        <mxCell id="xvZRecqZtTW9wfuWbH0g-108" value="" style="endArrow=none;html=1;strokeWidth=4;fillColor=none;strokeColor=#3333FF;" edge="1" parent="xvZRecqZtTW9wfuWbH0g-107">
          <mxGeometry width="50" height="50" relative="1" as="geometry">
            <mxPoint as="sourcePoint" />
            <mxPoint x="18.000000000000004" y="20" as="targetPoint" />
          </mxGeometry>
        </mxCell>
        <mxCell id="xvZRecqZtTW9wfuWbH0g-109" value="" style="endArrow=none;html=1;strokeWidth=4;fillColor=none;strokeColor=#3333FF;" edge="1" parent="xvZRecqZtTW9wfuWbH0g-107">
          <mxGeometry width="50" height="50" relative="1" as="geometry">
            <mxPoint x="0.9000000000000002" y="20" as="sourcePoint" />
            <mxPoint x="17.100000000000005" as="targetPoint" />
          </mxGeometry>
        </mxCell>
        <mxCell id="xvZRecqZtTW9wfuWbH0g-110" value="" style="group;fillColor=none;" vertex="1" connectable="0" parent="1">
          <mxGeometry x="606" y="798" width="22" height="20" as="geometry" />
        </mxCell>
        <mxCell id="xvZRecqZtTW9wfuWbH0g-111" value="" style="endArrow=none;html=1;strokeWidth=4;fillColor=none;strokeColor=#FF0000;" edge="1" parent="xvZRecqZtTW9wfuWbH0g-110">
          <mxGeometry width="50" height="50" relative="1" as="geometry">
            <mxPoint as="sourcePoint" />
            <mxPoint x="22.000000000000004" y="20" as="targetPoint" />
          </mxGeometry>
        </mxCell>
        <mxCell id="xvZRecqZtTW9wfuWbH0g-112" value="" style="endArrow=none;html=1;strokeWidth=4;fillColor=none;strokeColor=#FF0000;" edge="1" parent="xvZRecqZtTW9wfuWbH0g-110">
          <mxGeometry width="50" height="50" relative="1" as="geometry">
            <mxPoint x="1.1000000000000003" y="20" as="sourcePoint" />
            <mxPoint x="20.900000000000006" as="targetPoint" />
          </mxGeometry>
        </mxCell>
        <mxCell id="xvZRecqZtTW9wfuWbH0g-113" value="" style="group;fillColor=none;" vertex="1" connectable="0" parent="1">
          <mxGeometry x="560" y="950" width="20" height="20" as="geometry" />
        </mxCell>
        <mxCell id="xvZRecqZtTW9wfuWbH0g-114" value="" style="endArrow=none;html=1;strokeWidth=4;fillColor=none;strokeColor=#33FF33;" edge="1" parent="xvZRecqZtTW9wfuWbH0g-113">
          <mxGeometry width="50" height="50" relative="1" as="geometry">
            <mxPoint as="sourcePoint" />
            <mxPoint x="20.000000000000004" y="20" as="targetPoint" />
          </mxGeometry>
        </mxCell>
        <mxCell id="xvZRecqZtTW9wfuWbH0g-115" value="" style="endArrow=none;html=1;strokeWidth=4;fillColor=none;strokeColor=#33FF33;" edge="1" parent="xvZRecqZtTW9wfuWbH0g-113">
          <mxGeometry width="50" height="50" relative="1" as="geometry">
            <mxPoint x="1.0000000000000004" y="20" as="sourcePoint" />
            <mxPoint x="19.000000000000007" as="targetPoint" />
          </mxGeometry>
        </mxCell>
        <mxCell id="xvZRecqZtTW9wfuWbH0g-117" value="&lt;font style=&quot;font-size: 20px&quot;&gt;待分类数据&lt;/font&gt;" style="text;html=1;align=center;verticalAlign=middle;resizable=0;points=[];autosize=1;strokeColor=none;" vertex="1" parent="1">
          <mxGeometry x="140" y="660" width="120" height="20" as="geometry" />
        </mxCell>
        <mxCell id="xvZRecqZtTW9wfuWbH0g-118" value="&lt;span style=&quot;color: rgb(0 , 0 , 0) ; font-family: &amp;#34;helvetica&amp;#34; ; font-size: 20px ; font-style: normal ; font-weight: 400 ; letter-spacing: normal ; text-align: center ; text-indent: 0px ; text-transform: none ; word-spacing: 0px ; background-color: rgb(248 , 249 , 250) ; display: inline ; float: none&quot;&gt;分类结果1&lt;/span&gt;" style="text;whiteSpace=wrap;html=1;" vertex="1" parent="1">
          <mxGeometry x="537" y="650" width="130" height="30" as="geometry" />
        </mxCell>
        <mxCell id="xvZRecqZtTW9wfuWbH0g-119" value="&lt;span style=&quot;color: rgb(0 , 0 , 0) ; font-family: &amp;#34;helvetica&amp;#34; ; font-size: 20px ; font-style: normal ; font-weight: 400 ; letter-spacing: normal ; text-align: center ; text-indent: 0px ; text-transform: none ; word-spacing: 0px ; background-color: rgb(248 , 249 , 250) ; display: inline ; float: none&quot;&gt;分类结果2&lt;/span&gt;" style="text;whiteSpace=wrap;html=1;" vertex="1" parent="1">
          <mxGeometry x="141" y="1050" width="130" height="30" as="geometry" />
        </mxCell>
        <mxCell id="xvZRecqZtTW9wfuWbH0g-120" value="&lt;span style=&quot;color: rgb(0 , 0 , 0) ; font-family: &amp;#34;helvetica&amp;#34; ; font-size: 20px ; font-style: normal ; font-weight: 400 ; letter-spacing: normal ; text-align: center ; text-indent: 0px ; text-transform: none ; word-spacing: 0px ; background-color: rgb(248 , 249 , 250) ; display: inline ; float: none&quot;&gt;分类结果3&lt;/span&gt;" style="text;whiteSpace=wrap;html=1;" vertex="1" parent="1">
          <mxGeometry x="525" y="1050" width="130" height="30" as="geometry" />
        </mxCell>
      </root>
    </mxGraphModel>
  </diagram>
</mxfile>
